{"glyphs":{":":{"x_min":0,"x_max":273,"ha":273,"o":"m 79 367 l 79 505 l 194 505 l 194 367 z m 79 0 l 79 137 l 194 137 l 194 0 z"},"$":{"x_min":0,"x_max":456,"ha":456,"o":"m 444 201 q 444 160 433 126 q 422 92 398 67 q 375 42 339 28 q 302 14 252 11 l 252 -74 l 208 -74 l 208 10 q 163 12 129 25 q 95 38 71 62 q 47 86 33 120 q 18 155 11 199 l 113 222 q 117 199 123 179 q 129 160 140 146 q 150 132 167 123 q 184 114 208 111 l 208 302 q 207 303 202 304 q 197 305 196 305 q 165 314 135 327 q 104 340 81 362 q 58 384 43 418 q 29 452 29 503 q 29 547 42 579 q 55 611 79 632 q 103 653 136 664 q 169 675 208 677 l 208 742 l 252 742 l 252 677 q 295 675 325 663 q 355 651 376 630 q 396 609 409 578 q 422 547 431 506 l 325 487 q 319 529 301 552 q 284 576 252 581 l 252 409 q 254 408 256 408 q 258 408 261 407 q 295 397 328 384 q 361 371 387 349 q 413 326 428 291 q 444 255 444 201 z m 208 583 q 187 581 173 574 q 159 567 150 557 q 141 546 137 533 q 134 520 134 505 q 134 484 139 470 q 145 457 155 448 q 165 439 179 433 q 192 427 208 421 z m 340 199 q 340 223 333 238 q 327 253 315 262 q 303 271 287 278 q 271 284 252 290 l 252 111 q 294 114 317 135 q 340 156 340 199 z"},"?":{"x_min":0,"x_max":501,"ha":501,"o":"m 454 501 q 454 469 447 444 q 440 420 428 401 q 417 381 402 366 q 387 351 371 337 l 341 310 q 326 297 314 282 q 302 267 294 249 q 286 231 286 208 l 179 208 q 181 250 193 279 q 206 309 224 331 q 242 353 262 370 q 283 387 300 405 q 317 423 329 445 q 340 466 340 495 q 340 538 317 563 q 294 588 252 588 q 231 588 214 580 q 197 573 184 559 q 171 545 163 526 q 154 506 152 483 l 38 489 q 42 532 57 570 q 72 608 98 637 q 125 665 162 682 q 200 698 250 698 q 298 698 336 685 q 374 671 400 645 q 426 620 440 583 q 454 546 454 501 z m 175 0 l 175 132 l 291 132 l 291 0 z"},"<":{"x_min":0,"x_max":479,"ha":479,"o":"m 35 252 l 35 409 l 446 600 l 446 489 l 112 330 l 446 172 l 446 61 z"},"'":{"x_min":0,"x_max":195,"ha":195,"o":"m 142 438 l 54 438 l 43 688 l 152 688 z"},"=":{"x_min":0,"x_max":479,"ha":479,"o":"m 34 411 l 34 520 l 445 520 l 445 411 z m 34 142 l 34 250 l 445 250 l 445 142 z"},"a":{"x_min":0,"x_max":456,"ha":456,"o":"m 157 -10 q 126 -10 101 1 q 77 11 60 31 q 42 52 33 82 q 24 111 24 149 q 24 196 37 228 q 51 260 74 280 q 97 300 128 309 q 160 318 195 318 l 288 320 l 288 347 q 288 376 284 395 q 280 415 272 427 q 264 439 252 444 q 240 449 225 449 q 211 449 200 446 q 189 442 181 434 q 173 425 168 411 q 163 396 161 375 l 43 381 q 48 416 61 445 q 74 473 97 494 q 119 515 152 527 q 186 538 230 538 q 271 538 302 526 q 333 514 355 490 q 377 465 389 430 q 401 395 401 349 l 401 156 q 401 138 402 123 q 404 108 407 98 q 411 88 418 83 q 425 78 437 78 q 449 78 461 81 l 461 7 q 461 7 443 1 q 435 -1 427 -2 q 419 -4 410 -5 q 401 -6 389 -6 q 347 -6 326 20 q 306 45 302 94 l 300 94 q 277 45 242 18 q 207 -10 157 -10 z m 288 245 l 230 244 q 212 243 196 240 q 180 237 168 229 q 156 220 148 204 q 141 188 141 160 q 141 123 156 104 q 170 86 193 86 q 215 86 233 97 q 250 108 263 127 q 275 145 281 169 q 288 193 288 218 z"},"L":{"x_min":0,"x_max":501,"ha":501,"o":"m 55 0 l 55 688 l 173 688 l 173 111 l 476 111 l 476 0 z"},"3":{"x_min":0,"x_max":456,"ha":456,"o":"m 426 191 q 426 144 414 107 q 401 69 376 43 q 351 17 313 3 q 276 -11 226 -11 q 171 -11 133 6 q 95 23 71 51 q 47 79 35 115 q 22 150 19 187 l 133 199 q 136 177 142 159 q 149 141 160 127 q 171 114 188 107 q 204 100 226 100 q 266 100 289 125 q 311 149 311 199 q 311 230 301 249 q 290 267 274 277 q 257 287 239 291 q 220 294 203 294 l 164 294 l 164 405 l 201 405 q 217 405 235 409 q 252 413 266 423 q 280 433 289 451 q 298 470 298 498 q 298 541 279 565 q 259 589 222 589 q 187 589 166 565 q 144 542 141 499 l 28 509 q 33 557 50 593 q 67 628 93 652 q 119 675 153 687 q 186 698 224 698 q 273 698 309 684 q 345 669 368 644 q 391 619 401 586 q 412 553 412 515 q 412 485 405 459 q 397 433 383 412 q 368 391 345 376 q 323 361 292 354 l 292 352 q 326 347 352 333 q 377 318 394 297 q 411 275 418 248 q 426 221 426 191 z"},";":{"x_min":0,"x_max":273,"ha":273,"o":"m 80 367 l 80 505 l 195 505 l 195 367 z m 195 32 q 195 0 192 -27 q 189 -54 183 -77 q 178 -100 170 -119 q 162 -138 152 -155 l 78 -155 q 89 -138 99 -119 q 109 -100 116 -80 q 123 -60 127 -40 q 131 -20 131 0 l 80 0 l 80 137 l 195 137 z"},"J":{"x_min":0,"x_max":456,"ha":456,"o":"m 210 -10 q 167 -10 134 1 q 101 12 77 35 q 52 59 36 96 q 21 133 12 187 l 130 208 q 134 179 141 159 q 148 139 158 127 q 168 114 182 109 q 195 103 210 103 q 246 103 264 132 q 282 161 282 214 l 282 575 l 170 575 l 170 688 l 400 688 l 400 218 q 400 166 387 123 q 375 81 351 52 q 327 22 291 6 q 256 -10 210 -10 z"},"V":{"x_min":0,"x_max":547,"ha":547,"o":"m 334 0 l 214 0 l 5 688 l 129 688 l 245 246 q 245 246 256 201 l 266 159 q 271 137 274 116 q 278 136 283 158 q 287 177 292 200 l 303 246 l 419 688 l 542 688 z"},"\"":{"x_min":0,"x_max":389,"ha":389,"o":"m 323 438 l 236 438 l 225 688 l 335 688 z m 153 438 l 65 438 l 54 688 l 164 688 z"},"7":{"x_min":0,"x_max":456,"ha":456,"o":"m 420 579 q 420 579 348 437 q 314 368 289 299 q 264 229 249 156 q 235 82 235 0 l 117 0 q 117 82 133 155 q 149 229 176 298 q 204 368 239 437 l 315 575 l 35 575 l 35 688 l 420 688 z"},"S":{"x_min":0,"x_max":547,"ha":547,"o":"m 515 198 q 515 151 501 113 q 487 75 457 47 q 428 20 382 5 q 336 -10 273 -10 q 217 -10 174 2 q 131 15 101 39 q 70 62 51 98 q 32 133 23 179 l 138 202 q 143 179 152 160 q 161 141 177 127 q 193 113 218 106 q 242 98 276 98 q 336 98 368 120 q 400 143 400 190 q 400 218 387 236 q 375 254 353 266 q 332 278 304 286 q 277 293 247 301 q 247 301 198 315 q 174 322 153 333 q 131 343 112 357 q 93 371 79 392 q 65 413 58 440 q 50 468 50 506 q 50 557 67 594 q 83 630 114 654 q 144 677 185 688 q 226 698 274 698 q 330 698 369 688 q 409 677 435 656 q 462 634 477 602 q 493 569 500 526 l 386 507 q 377 551 350 574 q 323 596 272 596 q 241 596 220 590 q 200 583 188 572 q 175 561 170 546 q 165 531 165 514 q 165 489 175 472 q 185 456 203 445 q 221 434 246 427 q 271 419 301 411 q 328 404 354 397 q 379 389 403 379 q 427 369 447 354 q 468 339 483 318 q 498 297 506 268 q 515 238 515 198 z"},"}":{"x_min":0,"x_max":319,"ha":319,"o":"m 17 -114 l 40 -114 q 77 -114 93 -89 q 109 -64 109 -12 l 109 135 q 109 160 115 180 q 122 200 133 216 q 145 232 159 242 q 174 253 191 258 l 191 260 q 175 264 160 275 q 145 285 134 301 q 122 316 115 337 q 109 358 109 383 l 109 530 q 109 581 93 606 q 77 632 40 632 l 17 632 l 17 725 l 96 725 q 151 725 183 687 q 214 650 214 579 l 214 418 q 214 388 220 366 q 227 345 239 332 q 251 319 268 313 q 285 307 307 306 l 307 210 q 286 210 269 204 q 251 198 239 185 q 227 172 220 151 q 214 129 214 99 l 214 -62 q 214 -95 206 -122 q 198 -149 183 -168 q 167 -187 145 -197 q 124 -208 96 -208 l 17 -208 z"},"Z":{"x_min":0,"x_max":501,"ha":501,"o":"m 478 0 l 24 0 l 24 102 l 330 575 l 55 575 l 55 688 l 461 688 l 461 588 l 156 113 l 478 113 z"},"x":{"x_min":0,"x_max":456,"ha":456,"o":"m 328 0 l 227 191 l 125 0 l 5 0 l 164 273 l 13 528 l 135 528 l 227 355 l 319 528 l 441 528 l 291 274 l 450 0 z"},")":{"x_min":0,"x_max":273,"ha":273,"o":"m 1 -208 q 33 -150 56 -95 q 79 -41 93 16 q 107 73 114 133 q 121 192 121 259 q 121 325 114 385 q 107 444 93 501 q 79 558 56 613 q 33 668 1 725 l 113 725 q 144 670 167 617 q 189 563 204 507 q 218 451 225 390 q 232 329 232 259 q 232 190 225 129 q 218 67 204 11 q 189 -46 167 -100 q 144 -153 113 -208 z"},"&":{"x_min":0,"x_max":592,"ha":592,"o":"m 36 188 q 36 227 46 258 q 57 289 74 314 q 92 340 117 360 q 142 380 171 397 q 159 429 150 465 q 142 501 142 533 q 142 565 150 594 q 158 623 176 645 q 194 667 223 679 q 251 692 292 692 q 325 692 351 682 q 378 673 397 654 q 417 636 427 609 q 438 582 438 547 q 438 511 424 484 q 411 456 389 434 q 368 412 339 393 q 311 375 281 358 q 301 314 326 273 q 350 232 378 194 q 401 235 416 279 q 431 323 442 371 l 525 337 q 512 280 493 229 q 474 179 448 132 q 466 113 484 105 q 502 96 520 96 q 532 96 544 98 q 556 100 566 104 l 566 5 q 544 -6 514 -6 q 493 -6 474 -1 q 456 4 439 12 q 422 20 408 31 q 394 42 382 53 q 369 41 352 30 q 336 18 317 9 q 298 0 276 -5 q 254 -10 230 -10 q 180 -10 143 5 q 106 21 82 47 q 59 73 47 109 q 36 146 36 188 z m 348 546 q 348 574 333 591 q 318 609 292 609 q 261 609 245 588 q 229 567 229 532 q 229 509 235 484 q 241 460 250 438 q 271 449 289 460 q 307 471 320 484 q 333 497 341 512 q 348 527 348 546 z m 315 120 q 285 162 257 208 q 229 254 207 304 q 173 285 156 257 q 138 229 138 190 q 138 167 144 148 q 150 128 162 114 q 174 100 192 91 q 210 83 234 83 q 260 83 281 95 q 303 106 315 120 z"},"_":{"x_min":0,"x_max":456,"ha":456,"o":"m -8 -122 l -8 -84 l 463 -84 l 463 -122 z"},"v":{"x_min":0,"x_max":456,"ha":456,"o":"m 292 0 l 158 0 l 3 528 l 122 528 l 198 233 q 198 233 205 202 q 209 186 213 169 l 220 138 q 224 123 226 111 q 229 123 232 138 l 240 168 l 248 201 l 256 231 l 335 528 l 453 528 z"},"O":{"x_min":0,"x_max":638,"ha":638,"o":"m 604 347 q 604 267 584 201 q 564 135 528 88 q 491 41 438 16 q 385 -10 318 -10 q 247 -10 194 17 q 141 43 105 91 q 69 139 52 204 q 34 270 34 347 q 34 428 52 493 q 71 558 107 603 q 144 649 197 674 q 250 698 318 698 q 387 698 440 673 q 494 648 530 603 q 566 557 585 492 q 604 427 604 347 z m 483 347 q 483 401 472 445 q 462 489 441 520 q 420 551 390 568 q 359 585 318 585 q 277 585 246 568 q 215 551 194 520 q 173 489 163 445 q 153 401 153 347 q 153 293 163 249 q 174 204 195 172 q 215 140 246 122 q 277 104 318 104 q 361 104 392 122 q 423 140 444 173 q 464 205 473 250 q 483 294 483 347 z"},"(":{"x_min":0,"x_max":273,"ha":273,"o":"m 160 -208 q 129 -153 106 -100 q 84 -46 69 11 q 55 67 48 129 q 41 190 41 259 q 41 329 48 390 q 55 451 69 507 q 84 563 106 617 q 129 670 160 725 l 272 725 q 240 668 217 613 q 194 558 180 501 q 166 444 159 385 q 152 325 152 259 q 152 192 159 133 q 166 73 180 16 q 194 -41 217 -95 q 240 -150 272 -208 z"},"C":{"x_min":0,"x_max":592,"ha":592,"o":"m 318 104 q 351 104 375 115 q 400 126 418 145 q 436 164 447 187 q 459 210 467 234 l 569 187 q 557 150 537 114 q 517 79 487 51 q 457 24 416 7 q 374 -10 318 -10 q 245 -10 191 17 q 138 43 103 91 q 67 139 51 204 q 34 270 34 347 q 34 428 51 493 q 67 558 102 603 q 136 649 189 674 q 242 698 313 698 q 368 698 410 684 q 451 670 481 644 q 511 619 531 584 q 551 549 562 507 l 458 472 q 453 494 441 514 q 429 535 411 550 q 394 566 370 575 q 346 585 315 585 q 272 585 242 568 q 211 551 191 520 q 171 489 162 445 q 152 401 152 347 q 152 293 162 249 q 171 204 191 172 q 211 140 243 122 q 274 104 318 104 z"},"W":{"x_min":0,"x_max":774,"ha":774,"o":"m 627 0 l 487 0 l 411 398 q 407 416 403 441 l 395 489 q 391 516 387 545 q 387 545 378 489 q 378 489 375 465 q 373 452 370 440 l 366 417 q 364 407 362 398 l 286 0 l 146 0 l 1 688 l 121 688 l 191 305 l 202 244 l 212 189 q 217 162 221 136 l 232 207 q 232 207 237 237 l 243 268 l 248 297 l 252 322 l 322 688 l 455 688 l 526 322 q 528 310 530 296 l 535 266 q 538 250 540 235 q 542 220 544 205 l 554 136 q 554 136 564 193 q 564 193 574 248 q 580 277 585 305 l 653 688 l 773 688 z"},"A":{"x_min":0,"x_max":592,"ha":592,"o":"m 453 0 l 403 176 l 188 176 l 139 0 l 21 0 l 226 688 l 365 688 l 570 0 z m 321 482 q 321 482 312 517 q 307 534 304 548 l 298 572 q 296 581 296 582 q 295 581 293 571 q 292 562 288 548 q 285 534 280 517 l 271 482 l 215 284 l 377 284 z"},"f":{"x_min":0,"x_max":273,"ha":273,"o":"m 189 436 l 189 0 l 77 0 l 77 436 l 14 436 l 14 528 l 77 528 l 77 583 q 77 614 83 639 q 89 665 104 684 q 118 703 143 714 q 167 725 203 725 q 222 725 241 722 q 260 720 274 717 l 274 628 q 267 630 258 632 q 250 633 242 633 q 226 633 216 629 q 206 625 200 617 q 194 609 192 597 q 189 585 189 570 l 189 528 l 274 528 l 274 436 z"},"Q":{"x_min":0,"x_max":638,"ha":638,"o":"m 604 347 q 604 278 589 220 q 575 163 548 118 q 521 73 482 44 q 443 14 394 2 q 402 -26 413 -44 q 423 -62 437 -72 q 451 -82 467 -86 q 483 -89 501 -89 q 513 -89 525 -88 q 537 -87 549 -84 l 548 -183 q 526 -189 503 -193 q 479 -197 451 -197 q 413 -197 385 -183 q 356 -169 335 -144 q 314 -119 299 -83 q 285 -48 274 -5 q 214 2 169 31 q 124 60 94 106 q 63 152 49 214 q 34 275 34 347 q 34 428 52 493 q 71 558 107 603 q 144 649 197 674 q 250 698 318 698 q 387 698 440 673 q 494 648 530 603 q 566 557 585 492 q 604 427 604 347 z m 483 347 q 483 401 472 445 q 462 489 441 520 q 420 551 390 568 q 359 585 318 585 q 277 585 246 568 q 215 551 194 520 q 173 489 163 445 q 153 401 153 347 q 153 293 163 249 q 174 204 195 171 q 215 139 246 121 q 277 103 318 103 q 361 103 392 121 q 423 140 444 172 q 464 205 473 250 q 483 294 483 347 z"},"w":{"x_min":0,"x_max":638,"ha":638,"o":"m 526 0 l 407 0 l 338 322 q 334 337 332 356 q 329 375 326 392 l 319 431 q 316 411 312 392 q 309 375 305 356 q 302 337 298 321 l 229 0 l 110 0 l -2 528 l 104 528 l 158 218 q 161 205 163 188 l 168 158 q 171 141 175 125 q 178 143 180 161 q 183 176 186 191 l 190 218 l 258 528 l 379 528 l 445 218 q 448 205 451 189 l 457 159 q 459 142 462 125 q 465 142 468 159 q 468 159 473 189 l 479 218 l 536 528 l 640 528 z"},"-":{"x_min":0,"x_max":273,"ha":273,"o":"m 32 200 l 32 319 l 240 319 l 240 200 z"},"E":{"x_min":0,"x_max":547,"ha":547,"o":"m 55 0 l 55 688 l 499 688 l 499 577 l 173 577 l 173 404 l 474 404 l 474 292 l 173 292 l 173 111 l 515 111 l 515 0 z"},"s":{"x_min":0,"x_max":456,"ha":456,"o":"m 422 154 q 422 116 409 86 q 396 56 372 34 q 347 13 311 2 q 275 -10 229 -10 q 188 -10 154 -2 q 121 5 96 22 q 71 39 54 65 q 37 92 29 132 l 128 150 q 133 128 141 114 q 149 101 162 93 q 174 86 191 83 q 208 81 229 81 q 248 81 264 84 q 281 86 293 93 q 306 100 312 112 q 319 124 319 142 q 319 162 309 174 q 299 186 282 194 q 266 201 242 207 q 219 212 193 220 q 166 227 140 237 q 113 248 93 265 q 72 283 59 310 q 46 337 46 378 q 46 416 58 446 q 70 475 94 496 q 117 517 151 528 q 185 539 229 539 q 265 539 295 531 q 326 522 350 505 q 374 488 390 461 q 406 434 413 396 l 312 383 q 310 402 302 415 q 295 427 285 435 q 274 442 260 445 q 246 447 229 447 q 189 447 169 435 q 149 422 149 393 q 149 375 157 364 q 166 354 181 346 q 196 339 216 334 q 237 329 261 322 q 292 314 321 303 q 350 293 372 275 q 395 256 409 228 q 422 199 422 154 z"},">":{"x_min":0,"x_max":479,"ha":479,"o":"m 35 61 l 35 172 l 368 330 l 35 489 l 35 600 l 446 409 l 446 252 z"},"l":{"x_min":0,"x_max":228,"ha":228,"o":"m 57 0 l 57 725 l 170 725 l 170 0 z"},"8":{"x_min":0,"x_max":456,"ha":456,"o":"m 431 194 q 431 149 419 112 q 407 75 382 48 q 357 21 319 5 q 281 -10 229 -10 q 176 -10 138 5 q 100 21 75 48 q 50 75 38 112 q 26 149 26 193 q 26 230 36 260 q 45 289 61 310 q 77 331 98 343 q 119 355 141 360 l 141 362 q 118 368 99 383 q 80 397 66 418 q 53 438 46 464 q 39 489 39 516 q 39 557 51 591 q 63 625 87 648 q 111 672 146 685 q 181 698 227 698 q 276 698 312 685 q 348 671 371 647 q 395 623 406 589 q 417 556 417 515 q 417 488 410 463 q 403 438 390 417 q 376 397 357 383 q 338 369 314 363 l 314 361 q 339 356 361 343 q 382 330 397 309 q 413 289 422 260 q 431 230 431 194 z m 301 508 q 301 528 298 546 q 294 563 285 575 q 277 588 263 595 q 249 602 227 602 q 206 602 192 595 q 178 588 170 575 q 161 563 158 546 q 154 528 154 508 q 154 490 157 472 q 160 455 168 441 q 176 427 191 418 q 205 409 228 409 q 252 409 267 418 q 281 427 289 441 q 296 455 299 473 q 301 490 301 508 z m 314 205 q 314 226 311 246 q 307 265 297 280 q 287 295 270 304 q 252 313 226 313 q 202 313 186 304 q 170 295 160 280 q 150 265 146 245 q 142 225 142 203 q 142 177 146 156 q 150 134 160 119 q 170 104 187 95 q 204 87 229 87 q 255 87 271 95 q 288 104 297 120 q 307 135 311 157 q 314 179 314 205 z"},"\\":{"x_min":0,"x_max":228,"ha":228,"o":"m 123 -20 l 8 725 l 104 725 l 220 -20 z"},"e":{"x_min":0,"x_max":456,"ha":456,"o":"m 235 -10 q 188 -10 150 7 q 113 24 86 58 q 60 93 46 145 q 32 197 32 267 q 32 342 49 394 q 65 446 94 478 q 122 510 158 524 q 195 538 236 538 q 288 538 324 516 q 360 495 383 456 q 406 417 417 362 q 428 308 428 242 l 428 238 l 150 238 q 150 205 155 176 q 160 147 170 127 q 181 106 198 94 q 216 82 240 82 q 270 82 289 97 q 308 113 315 145 l 421 134 q 414 111 401 86 q 388 61 367 39 q 345 18 313 4 q 281 -10 235 -10 z m 235 452 q 218 452 203 445 q 188 438 177 422 q 166 407 159 382 q 152 358 151 324 l 319 324 q 316 388 294 420 q 272 452 235 452 z"},"b":{"x_min":0,"x_max":501,"ha":501,"o":"m 467 266 q 467 206 458 156 q 448 105 427 68 q 407 31 375 11 q 344 -10 301 -10 q 282 -10 263 -5 q 244 0 226 11 q 209 22 195 41 q 180 59 170 85 l 169 85 q 169 75 168 62 q 168 48 167 36 q 166 23 165 14 q 164 4 164 0 l 54 0 q 55 17 56 49 q 57 80 57 121 l 57 725 l 170 725 l 170 522 q 170 507 170 492 q 169 477 169 464 q 168 450 168 437 l 170 437 q 190 491 226 515 q 262 538 309 538 q 350 538 380 518 q 410 498 429 461 q 449 425 458 375 q 467 325 467 266 z m 350 266 q 350 356 328 399 q 307 443 262 443 q 245 443 228 435 q 210 426 197 406 q 184 385 176 350 q 168 315 168 262 q 168 210 176 176 q 184 142 197 121 q 210 101 227 92 q 244 84 261 84 q 304 84 327 127 q 350 170 350 266 z"},"%":{"x_min":0,"x_max":729,"ha":729,"o":"m 708 211 q 708 150 696 108 q 685 66 666 40 q 646 15 621 3 q 595 -8 565 -8 q 536 -8 510 3 q 484 15 465 40 q 446 66 435 108 q 424 150 424 211 q 424 275 435 318 q 446 360 465 385 q 484 410 510 420 q 537 430 567 430 q 596 430 622 420 q 647 410 667 385 q 686 360 697 318 q 708 275 708 211 z m 221 0 l 139 0 l 507 688 l 590 688 z m 164 696 q 192 696 218 686 q 243 676 262 651 q 282 626 293 584 q 304 542 304 477 q 304 416 293 374 q 282 332 262 306 q 243 280 217 269 q 191 258 161 258 q 132 258 106 269 q 81 280 62 306 q 42 332 31 374 q 21 416 21 477 q 21 542 31 584 q 42 626 61 651 q 81 676 107 686 q 133 696 164 696 z m 621 211 q 621 253 618 281 q 615 309 608 325 q 601 342 591 348 q 581 355 567 355 q 553 355 542 348 q 531 342 524 325 q 518 309 514 281 q 511 253 511 211 q 511 170 514 143 q 517 116 524 99 q 531 83 542 76 q 552 69 566 69 q 580 69 590 76 q 600 83 607 99 q 614 115 618 143 q 621 170 621 211 z m 217 477 q 217 519 214 547 q 210 574 204 591 q 197 607 187 614 q 177 620 164 620 q 149 620 138 613 q 127 606 120 590 q 113 574 110 546 q 106 519 106 477 q 106 436 110 409 q 113 381 120 365 q 127 348 138 341 q 148 334 163 334 q 176 334 187 341 q 197 348 204 364 q 210 381 214 408 q 217 436 217 477 z"},"m":{"x_min":0,"x_max":729,"ha":729,"o":"m 312 0 l 312 296 q 312 327 309 353 q 306 378 298 397 q 290 415 277 425 q 265 436 247 436 q 229 436 215 425 q 201 414 191 393 q 181 373 176 345 q 170 317 170 283 l 170 0 l 57 0 l 57 410 q 57 427 57 445 q 57 463 56 480 q 56 496 55 509 q 55 522 54 528 l 161 528 q 162 522 163 510 q 164 497 165 481 q 166 465 166 450 q 167 434 167 423 l 168 423 q 189 484 220 511 q 251 539 294 539 q 344 539 374 509 q 404 479 415 423 l 417 423 q 429 456 442 478 q 456 500 472 513 q 488 527 507 533 q 526 539 548 539 q 584 539 609 523 q 633 507 649 480 q 664 453 671 416 q 678 378 678 335 l 678 0 l 566 0 l 566 296 q 566 327 563 353 q 560 378 552 397 q 544 415 531 425 q 519 436 501 436 q 484 436 470 425 q 457 415 446 395 q 436 376 430 349 q 425 322 424 290 l 424 0 z"},"#":{"x_min":0,"x_max":456,"ha":456,"o":"m 364 421 l 336 259 l 422 259 l 422 186 l 324 186 l 291 0 l 229 0 l 261 186 l 138 186 l 105 0 l 44 0 l 76 186 l 14 186 l 14 259 l 89 259 l 117 421 l 35 421 l 35 493 l 130 493 l 164 681 l 225 681 l 192 493 l 315 493 l 348 681 l 411 681 l 377 493 l 443 493 l 443 421 z m 180 421 l 151 259 l 275 259 l 303 421 z"},",":{"x_min":0,"x_max":228,"ha":228,"o":"m 173 32 q 173 0 170 -27 q 167 -54 161 -77 q 156 -100 148 -119 q 140 -138 130 -155 l 56 -155 q 67 -138 77 -119 q 86 -100 94 -80 q 101 -60 105 -40 q 109 -20 109 0 l 57 0 l 57 149 l 173 149 z"},"n":{"x_min":0,"x_max":501,"ha":501,"o":"m 338 0 l 338 296 q 338 327 334 353 q 330 378 321 397 q 312 415 297 425 q 282 436 261 436 q 240 436 224 425 q 207 414 195 393 q 183 373 177 345 q 170 317 170 283 l 170 0 l 57 0 l 57 410 q 57 427 57 445 q 57 463 56 480 q 56 496 55 509 q 55 522 54 528 l 162 528 q 163 522 163 510 q 164 497 165 481 q 166 465 166 450 q 167 434 167 423 l 168 423 q 191 484 225 511 q 260 539 308 539 q 347 539 374 523 q 401 507 418 480 q 435 453 443 416 q 450 378 450 335 l 450 0 z"},"h":{"x_min":0,"x_max":501,"ha":501,"o":"m 168 423 q 191 483 225 511 q 260 538 308 538 q 347 538 374 522 q 401 507 418 479 q 435 452 443 415 q 450 378 450 335 l 450 0 l 338 0 l 338 296 q 338 327 334 352 q 330 378 321 396 q 312 415 297 425 q 282 435 261 435 q 240 435 224 424 q 207 413 195 393 q 183 373 177 344 q 170 316 170 283 l 170 0 l 57 0 l 57 725 l 170 725 l 170 527 q 170 511 169 495 q 169 479 168 466 q 168 452 167 440 q 167 429 167 423 z"},"z":{"x_min":0,"x_max":410,"ha":410,"o":"m 27 0 l 27 97 l 244 429 l 43 429 l 43 528 l 368 528 l 368 430 l 153 100 l 387 100 l 387 0 z"},"B":{"x_min":0,"x_max":592,"ha":592,"o":"m 555 196 q 555 144 537 107 q 520 69 490 46 q 460 22 421 11 q 381 0 337 0 l 55 0 l 55 688 l 313 688 q 363 688 402 677 q 441 667 468 646 q 495 624 508 592 q 522 559 522 515 q 522 457 495 416 q 469 376 415 362 q 483 352 519 309 q 555 267 555 196 z m 403 496 q 403 542 379 562 q 355 581 307 581 l 173 581 l 173 411 l 308 411 q 358 411 381 432 q 403 453 403 496 z m 436 208 q 436 235 427 253 q 418 272 403 283 q 388 294 367 299 q 347 304 322 304 l 173 304 l 173 107 l 327 107 q 351 107 370 112 q 390 116 405 128 q 419 139 428 159 q 436 178 436 208 z"},"K":{"x_min":0,"x_max":592,"ha":592,"o":"m 445 0 l 243 316 l 173 251 l 173 0 l 55 0 l 55 688 l 173 688 l 173 376 l 427 688 l 564 688 l 324 397 l 584 0 z"},"R":{"x_min":0,"x_max":592,"ha":592,"o":"m 442 0 l 312 261 l 173 261 l 173 0 l 55 0 l 55 688 l 336 688 q 389 688 429 674 q 468 659 495 633 q 521 606 534 568 q 547 530 547 483 q 547 444 538 412 q 528 380 512 355 q 495 331 472 314 q 449 297 422 289 l 575 0 z m 428 477 q 428 527 401 552 q 374 576 324 576 l 173 576 l 173 373 l 327 373 q 354 373 373 381 q 392 388 404 402 q 416 416 422 435 q 428 454 428 477 z"},"T":{"x_min":0,"x_max":501,"ha":501,"o":"m 310 577 l 310 0 l 191 0 l 191 577 l 9 577 l 9 688 l 492 688 l 492 577 z"},"P":{"x_min":0,"x_max":547,"ha":547,"o":"m 519 470 q 519 426 507 385 q 495 343 469 312 q 444 280 405 261 q 366 242 313 242 l 173 242 l 173 0 l 55 0 l 55 688 l 308 688 q 362 688 402 672 q 441 656 468 627 q 494 599 506 559 q 519 519 519 470 z m 400 468 q 400 521 374 549 q 348 576 295 576 l 173 576 l 173 353 l 298 353 q 325 353 344 361 q 363 370 375 385 q 388 400 394 421 q 400 442 400 468 z"},"|":{"x_min":0,"x_max":230,"ha":230,"o":"m 62 -222 l 62 725 l 168 725 l 168 -222 z"},"t":{"x_min":0,"x_max":273,"ha":273,"o":"m 168 -9 q 118 -9 92 24 q 65 57 65 124 l 65 436 l 10 436 l 10 528 l 70 528 l 105 652 l 176 652 l 176 528 l 258 528 l 258 436 l 176 436 l 176 161 q 176 123 188 104 q 200 86 225 86 q 235 86 244 88 q 252 90 263 93 l 263 8 q 242 0 219 -5 q 196 -9 168 -9 z"},"M":{"x_min":0,"x_max":683,"ha":683,"o":"m 523 0 l 523 417 q 523 442 524 468 q 524 495 525 517 q 525 517 527 567 q 527 567 511 494 q 511 494 504 463 l 498 433 l 491 406 l 485 384 l 384 0 l 299 0 l 198 384 q 195 393 192 406 l 186 433 l 179 463 l 172 494 q 172 494 155 567 q 156 539 157 511 q 158 488 159 462 q 160 436 160 417 l 160 0 l 55 0 l 55 688 l 213 688 l 314 303 q 318 288 322 266 l 332 224 q 332 224 342 174 q 342 174 353 223 q 353 223 357 244 l 362 265 q 365 275 367 284 l 372 301 l 471 688 l 628 688 l 628 0 z"},"g":{"x_min":0,"x_max":501,"ha":501,"o":"m 239 -212 q 196 -212 163 -201 q 130 -191 107 -172 q 84 -153 71 -127 q 57 -101 52 -70 l 164 -54 q 170 -85 190 -104 q 210 -122 242 -122 q 262 -122 278 -115 q 295 -108 307 -92 q 319 -75 325 -48 q 332 -21 332 18 q 332 18 332 46 q 332 60 333 72 q 333 85 333 98 l 332 98 q 312 47 277 24 q 242 1 192 1 q 151 1 122 21 q 92 41 72 76 q 52 111 43 160 q 34 209 34 269 q 34 330 44 379 q 54 429 74 464 q 95 500 126 519 q 158 539 201 539 q 245 539 279 516 q 313 494 332 443 l 334 443 q 334 454 334 467 q 335 480 336 493 q 337 505 338 515 q 339 525 339 528 l 446 528 q 445 511 445 479 q 444 447 444 406 l 444 16 q 444 -42 430 -84 q 417 -127 390 -155 q 364 -184 326 -198 q 288 -212 239 -212 z m 333 271 q 333 321 325 354 q 317 388 304 408 q 291 428 274 436 q 258 444 241 444 q 220 444 203 434 q 186 424 175 402 q 163 381 157 348 q 151 314 151 269 q 151 183 173 140 q 196 96 240 96 q 257 96 274 104 q 291 112 304 133 q 317 153 325 187 q 333 220 333 271 z"},"j":{"x_min":0,"x_max":228,"ha":228,"o":"m 58 624 l 58 725 l 170 725 l 170 624 z m 55 -208 q 33 -208 16 -206 q 0 -205 -13 -203 l -13 -106 q -7 -107 -2 -108 q 3 -108 8 -108 q 23 -108 33 -104 q 42 -101 48 -91 q 54 -82 56 -67 q 58 -52 58 -29 l 58 528 l 170 528 l 170 -62 q 170 -94 164 -121 q 158 -147 144 -167 q 130 -186 108 -197 q 86 -208 55 -208 z"},"i":{"x_min":0,"x_max":228,"ha":228,"o":"m 57 624 l 57 725 l 170 725 l 170 624 z m 57 0 l 57 528 l 170 528 l 170 0 z"},"y":{"x_min":0,"x_max":456,"ha":456,"o":"m 280 -28 q 265 -74 249 -108 q 232 -142 213 -164 q 194 -186 170 -197 q 146 -208 113 -208 q 96 -208 77 -206 q 59 -205 42 -201 l 42 -104 q 50 -105 62 -106 q 73 -107 81 -107 q 98 -107 111 -103 q 124 -99 134 -88 q 144 -78 153 -61 q 162 -44 170 -18 l 178 5 l 6 528 l 125 528 l 193 281 q 193 281 198 263 l 206 233 l 215 199 l 223 165 q 227 148 230 136 q 232 123 234 118 q 235 123 237 136 l 244 164 l 251 197 l 259 231 l 265 260 q 268 273 270 279 l 334 528 l 452 528 z"},"@":{"x_min":0,"x_max":800,"ha":800,"o":"m 752 354 q 752 284 737 225 q 722 167 696 125 q 669 83 634 60 q 599 36 560 36 q 543 36 529 41 q 514 46 504 57 q 494 67 489 83 q 483 99 483 120 q 483 127 484 136 q 484 146 485 153 l 483 153 q 475 131 461 110 q 447 89 428 73 q 410 57 388 46 q 367 36 343 36 q 305 36 279 53 q 254 69 239 96 q 224 123 217 157 q 210 190 210 224 q 210 280 224 334 q 238 388 263 430 q 289 472 326 497 q 364 523 411 523 q 452 523 478 500 q 504 478 517 438 l 519 438 l 535 512 l 597 512 l 550 265 q 543 227 540 196 q 536 166 536 148 q 536 124 545 113 q 554 103 567 103 q 590 103 613 122 q 635 140 652 173 q 670 207 681 252 q 691 298 691 353 q 691 415 675 467 q 658 520 626 559 q 594 597 547 619 q 500 641 438 641 q 385 641 340 626 q 295 610 259 583 q 223 555 195 516 q 168 478 149 431 q 130 385 121 333 q 112 281 112 225 q 112 183 119 143 q 125 103 139 68 q 153 34 174 5 q 195 -24 223 -44 q 252 -65 288 -76 q 324 -88 369 -88 q 403 -88 435 -82 q 467 -76 496 -66 q 526 -56 553 -42 q 580 -28 604 -12 l 629 -72 q 605 -88 578 -104 q 550 -120 517 -132 q 485 -144 447 -151 q 410 -158 366 -158 q 313 -158 270 -144 q 226 -130 190 -105 q 155 -80 128 -45 q 101 -10 83 33 q 65 75 56 124 q 47 173 47 225 q 47 293 60 355 q 72 418 96 472 q 120 525 154 569 q 188 613 232 645 q 275 676 327 693 q 379 710 438 710 q 519 710 578 681 q 638 652 676 604 q 715 555 733 490 q 752 426 752 354 z m 493 352 q 493 375 487 394 q 480 414 469 427 q 458 441 442 449 q 427 457 408 457 q 386 457 367 447 q 349 437 334 420 q 320 403 309 380 q 298 357 291 332 q 284 306 281 278 q 277 251 277 225 q 277 169 297 137 q 316 105 356 105 q 375 105 394 116 q 413 127 430 149 q 447 171 461 203 q 475 235 483 276 q 485 285 487 295 q 489 306 490 316 q 491 326 492 335 q 493 345 493 352 z"},".":{"x_min":0,"x_max":228,"ha":228,"o":"m 56 0 l 56 149 l 171 149 l 171 0 z"},"p":{"x_min":0,"x_max":501,"ha":501,"o":"m 467 267 q 467 207 458 156 q 448 105 427 68 q 407 32 375 11 q 344 -10 301 -10 q 282 -10 263 -5 q 244 0 227 11 q 209 22 195 40 q 180 58 170 84 l 167 84 q 168 82 168 72 q 168 62 169 49 q 169 36 170 22 q 170 7 170 -5 l 170 -208 l 57 -208 l 57 407 q 57 447 56 479 q 55 511 54 528 l 164 528 q 165 525 165 515 q 166 505 167 493 q 167 480 168 466 q 168 453 168 442 l 170 442 q 190 495 226 517 q 262 540 309 540 q 350 540 380 519 q 410 499 429 462 q 449 426 458 376 q 467 326 467 267 z m 350 267 q 350 357 328 401 q 305 444 261 444 q 244 444 227 436 q 210 427 198 406 q 185 386 176 351 q 168 316 168 263 q 168 211 176 177 q 184 142 197 122 q 210 101 227 93 q 243 84 260 84 q 281 84 298 94 q 315 105 326 127 q 338 149 344 184 q 350 219 350 267 z"},"X":{"x_min":0,"x_max":547,"ha":547,"o":"m 416 0 l 274 274 l 132 0 l 7 0 l 203 362 l 23 688 l 148 688 l 274 445 l 399 688 l 523 688 l 352 362 l 540 0 z"},"*":{"x_min":0,"x_max":319,"ha":319,"o":"m 197 554 l 291 605 l 318 509 l 218 479 l 292 375 l 219 316 l 161 439 l 101 316 l 26 376 l 103 479 l 2 509 l 30 605 l 125 554 l 118 688 l 204 688 z"},"Y":{"x_min":0,"x_max":547,"ha":547,"o":"m 333 282 l 333 0 l 215 0 l 215 282 l 14 688 l 138 688 l 273 397 l 410 688 l 534 688 z"},"c":{"x_min":0,"x_max":456,"ha":456,"o":"m 238 -10 q 186 -10 147 10 q 109 29 83 65 q 58 101 45 151 q 32 201 32 261 q 32 327 46 379 q 60 430 86 466 q 113 501 152 520 q 190 538 239 538 q 281 538 314 524 q 347 511 370 487 q 394 463 409 431 q 423 399 429 362 l 315 355 q 311 396 292 420 q 272 444 237 444 q 191 444 171 398 q 150 353 150 267 q 150 84 239 84 q 271 84 292 109 q 314 133 319 182 l 432 176 q 428 139 414 106 q 399 72 375 47 q 351 21 317 6 q 282 -10 238 -10 z"},"!":{"x_min":0,"x_max":273,"ha":273,"o":"m 182 208 l 90 208 l 77 688 l 195 688 z m 77 0 l 77 132 l 192 132 l 192 0 z"},"/":{"x_min":0,"x_max":228,"ha":228,"o":"m 8 -20 l 125 725 l 220 725 l 105 -20 z"},"[":{"x_min":0,"x_max":273,"ha":273,"o":"m 46 -208 l 46 725 l 263 725 l 263 632 l 152 632 l 152 -114 l 263 -114 l 263 -208 z"},"6":{"x_min":0,"x_max":456,"ha":456,"o":"m 426 225 q 426 173 414 130 q 402 87 379 56 q 355 25 319 8 q 284 -10 237 -10 q 137 -10 84 75 q 30 161 30 328 q 30 512 84 605 q 139 698 239 698 q 273 698 301 690 q 328 681 350 662 q 372 643 387 613 q 402 583 411 540 l 305 522 q 297 558 279 574 q 261 590 237 590 q 191 590 166 535 q 140 479 140 367 q 158 404 190 423 q 222 443 263 443 q 300 443 330 428 q 360 413 382 385 q 403 357 415 316 q 426 276 426 225 z m 313 221 q 313 249 308 271 q 303 293 292 309 q 282 325 266 333 q 250 342 230 342 q 216 342 201 336 q 186 330 174 317 q 163 304 155 284 q 148 264 148 236 q 148 207 154 181 q 160 156 171 137 q 182 118 198 108 q 213 97 233 97 q 271 97 292 130 q 313 163 313 221 z"},"r":{"x_min":0,"x_max":319,"ha":319,"o":"m 57 0 l 57 404 q 57 421 57 440 q 57 459 56 477 q 56 494 55 508 q 55 522 54 528 l 161 528 q 162 522 163 508 q 164 494 164 477 l 166 442 q 167 426 167 416 l 168 416 q 176 444 185 467 q 193 490 205 506 q 216 521 232 530 q 248 539 271 539 q 281 539 291 536 q 301 534 307 531 l 307 417 q 296 419 285 422 q 273 424 258 424 q 216 424 193 382 q 169 341 169 259 l 169 0 z"},"2":{"x_min":0,"x_max":456,"ha":456,"o":"m 28 0 l 28 95 q 47 146 75 188 q 103 229 133 263 q 164 298 193 327 q 223 357 247 385 q 271 412 285 440 q 300 468 300 499 q 300 545 281 567 q 263 589 226 589 q 190 589 171 565 q 152 542 146 494 l 33 502 q 37 542 50 578 q 62 614 85 641 q 108 667 143 683 q 177 698 226 698 q 271 698 306 685 q 341 672 365 647 q 390 623 402 587 q 415 551 415 505 q 415 457 399 417 q 383 378 359 345 q 334 312 305 284 l 247 228 q 219 200 196 172 q 172 145 161 113 l 423 113 l 423 0 z"},"{":{"x_min":0,"x_max":319,"ha":319,"o":"m 223 -208 q 195 -208 173 -197 q 152 -187 136 -168 q 121 -149 113 -122 q 105 -95 105 -62 l 105 99 q 105 129 98 151 q 92 172 80 185 q 68 198 51 204 q 34 210 13 210 l 13 306 q 34 307 51 313 q 68 319 80 332 q 92 345 98 366 q 105 388 105 418 l 105 579 q 105 650 136 687 q 167 725 223 725 l 302 725 l 302 632 l 278 632 q 242 632 226 606 q 209 581 209 530 l 209 383 q 209 358 203 337 q 196 316 185 301 q 174 285 159 275 q 144 264 127 260 l 127 258 q 144 253 159 242 q 174 232 186 216 q 197 200 203 180 q 209 160 209 135 l 209 -12 q 209 -64 226 -89 q 242 -114 278 -114 l 302 -114 l 302 -208 z"},"9":{"x_min":0,"x_max":456,"ha":456,"o":"m 426 355 q 426 172 371 81 q 316 -10 215 -10 q 178 -10 149 0 q 121 9 99 28 q 77 48 62 79 q 47 109 39 152 l 144 170 q 152 133 170 116 q 188 98 216 98 q 239 98 257 111 q 275 125 288 151 q 301 178 308 219 q 315 261 315 317 q 307 298 294 283 q 281 269 264 259 q 248 249 229 244 q 210 239 190 239 q 154 239 124 255 q 94 271 73 300 q 51 330 40 372 q 28 415 28 468 q 28 522 42 565 q 55 608 80 638 q 105 667 142 683 q 179 698 226 698 q 274 698 312 678 q 349 658 374 615 q 399 573 413 509 q 426 444 426 355 z m 307 451 q 307 480 301 506 q 296 532 285 551 q 274 569 259 580 q 243 591 223 591 q 204 591 189 582 q 174 574 164 558 q 153 542 148 519 q 143 496 143 467 q 143 440 148 417 q 153 394 163 377 q 173 360 188 350 q 204 341 223 341 q 239 341 254 348 q 269 354 281 368 q 292 382 300 403 q 307 423 307 451 z"}," ":{"x_min":0,"x_max":228,"ha":228,"o":""},"I":{"x_min":0,"x_max":228,"ha":228,"o":"m 55 0 l 55 688 l 173 688 l 173 0 z"},"H":{"x_min":0,"x_max":592,"ha":592,"o":"m 418 0 l 418 295 l 173 295 l 173 0 l 55 0 l 55 688 l 173 688 l 173 414 l 418 414 l 418 688 l 537 688 l 537 0 z"},"4":{"x_min":0,"x_max":456,"ha":456,"o":"m 376 140 l 376 0 l 269 0 l 269 140 l 12 140 l 12 243 l 250 688 l 376 688 l 376 242 l 452 242 l 452 140 z m 269 467 q 269 476 269 489 q 270 502 270 517 q 271 531 271 544 q 272 557 272 564 q 271 559 266 549 l 256 527 q 251 516 245 504 l 235 485 l 104 242 l 269 242 z"},"~":{"x_min":0,"x_max":479,"ha":479,"o":"m 341 252 q 311 252 282 262 q 253 272 223 285 q 197 296 175 302 q 153 308 135 308 q 119 308 106 305 q 92 302 80 297 q 68 291 56 283 q 44 275 32 265 l 32 369 q 53 388 80 399 q 107 410 141 410 q 158 410 174 407 q 190 404 206 399 q 222 394 238 387 l 269 374 q 287 366 308 360 q 330 353 349 353 q 376 353 402 365 q 427 377 448 398 l 448 291 q 436 280 423 273 q 411 265 398 260 q 386 256 372 254 q 358 252 341 252 z"},"D":{"x_min":0,"x_max":592,"ha":592,"o":"m 558 349 q 558 263 536 198 q 515 133 478 89 q 441 45 391 22 q 341 0 283 0 l 55 0 l 55 688 l 259 688 q 324 688 379 668 q 434 648 474 606 q 513 565 535 501 q 558 437 558 349 z m 438 349 q 438 409 425 452 q 412 495 388 523 q 364 550 330 563 q 297 577 256 577 l 173 577 l 173 111 l 273 111 q 309 111 339 126 q 369 142 391 172 q 414 202 426 246 q 438 291 438 349 z"},"^":{"x_min":0,"x_max":479,"ha":479,"o":"m 369 251 l 239 618 l 109 251 l 18 251 l 175 688 l 304 688 l 461 251 z"},"0":{"x_min":0,"x_max":456,"ha":456,"o":"m 422 344 q 422 246 407 178 q 393 110 366 69 q 340 27 304 9 q 269 -10 226 -10 q 184 -10 148 8 q 112 26 87 68 q 61 110 47 177 q 32 245 32 344 q 32 448 47 516 q 61 584 87 625 q 113 666 149 682 q 186 698 229 698 q 271 698 306 682 q 341 666 367 625 q 393 584 408 516 q 422 448 422 344 z m 310 344 q 310 417 305 465 q 301 512 291 540 q 281 568 266 580 q 250 591 229 591 q 205 591 189 579 q 173 568 163 540 q 153 511 149 464 q 145 416 145 344 q 145 273 149 226 q 154 179 163 150 q 173 122 188 110 q 204 98 227 98 q 249 98 265 110 q 280 122 290 150 q 300 179 305 226 q 310 273 310 344 z"},"F":{"x_min":0,"x_max":501,"ha":501,"o":"m 173 577 l 173 364 l 462 364 l 462 252 l 173 252 l 173 0 l 55 0 l 55 688 l 471 688 l 471 577 z"},"`":{"x_min":0,"x_max":273,"ha":273,"o":"m 163 578 l 26 712 l 26 733 l 130 733 l 230 593 l 230 578 z"},"k":{"x_min":0,"x_max":456,"ha":456,"o":"m 334 0 l 218 239 l 170 198 l 170 0 l 57 0 l 57 725 l 170 725 l 170 310 l 324 528 l 445 528 l 293 322 l 457 0 z"},"u":{"x_min":0,"x_max":501,"ha":501,"o":"m 164 528 l 164 232 q 164 201 167 176 q 171 150 181 132 q 190 113 205 103 q 219 93 240 93 q 261 93 277 104 q 294 115 306 135 q 318 155 324 183 q 331 211 331 245 l 331 528 l 444 528 l 444 118 q 444 102 444 83 q 444 65 445 49 q 445 32 446 19 q 446 6 447 0 l 339 0 q 339 6 338 19 q 337 32 337 47 q 336 63 335 79 q 335 94 335 105 l 333 105 q 311 45 276 18 q 241 -10 193 -10 q 154 -10 127 6 q 100 21 83 49 q 66 76 58 113 q 51 150 51 193 l 51 528 z"},"]":{"x_min":0,"x_max":273,"ha":273,"o":"m 10 -208 l 10 -114 l 121 -114 l 121 632 l 10 632 l 10 725 l 227 725 l 227 -208 z"},"U":{"x_min":0,"x_max":592,"ha":592,"o":"m 289 -10 q 236 -10 192 6 q 148 21 117 53 q 85 86 67 137 q 49 188 49 258 l 49 688 l 167 688 l 167 269 q 167 226 176 194 q 185 163 201 142 q 218 122 241 113 q 264 103 292 103 q 321 103 345 113 q 370 123 387 144 q 404 165 414 197 q 424 229 424 274 l 424 688 l 542 688 l 542 265 q 542 194 523 143 q 504 91 471 57 q 437 23 391 7 q 344 -10 289 -10 z"},"o":{"x_min":0,"x_max":501,"ha":501,"o":"m 469 265 q 469 204 455 154 q 441 104 414 67 q 386 31 345 10 q 304 -10 249 -10 q 196 -10 155 10 q 115 30 87 66 q 60 103 46 153 q 32 204 32 265 q 32 324 46 374 q 59 424 86 460 q 113 497 155 518 q 196 538 251 538 q 310 538 351 518 q 392 497 418 461 q 444 424 457 374 q 469 324 469 265 z m 351 265 q 351 359 326 401 q 301 444 253 444 q 203 444 177 401 q 150 358 150 265 q 150 217 157 183 q 164 149 177 127 q 190 105 208 94 q 226 84 248 84 q 272 84 292 94 q 311 105 324 127 q 337 149 344 183 q 351 217 351 265 z"},"N":{"x_min":0,"x_max":592,"ha":592,"o":"m 398 0 l 152 530 q 154 508 156 487 q 158 468 159 447 q 160 425 160 406 l 160 0 l 55 0 l 55 688 l 189 688 l 439 154 q 437 174 436 197 q 434 216 433 240 q 432 264 432 288 l 432 688 l 537 688 l 537 0 z"},"+":{"x_min":0,"x_max":479,"ha":479,"o":"m 285 278 l 285 79 l 194 79 l 194 278 l 35 278 l 35 387 l 194 387 l 194 586 l 285 586 l 285 387 l 446 387 l 446 278 z"},"G":{"x_min":0,"x_max":638,"ha":638,"o":"m 323 103 q 349 103 372 108 q 396 113 416 121 q 436 129 452 139 q 469 150 479 161 l 479 256 l 341 256 l 341 363 l 587 363 l 587 110 q 568 86 541 64 q 514 42 479 26 q 445 10 405 0 q 365 -10 320 -10 q 245 -10 191 17 q 137 43 102 91 q 67 139 50 204 q 34 270 34 347 q 34 428 51 493 q 69 558 105 603 q 141 649 195 674 q 249 698 322 698 q 375 698 417 686 q 458 673 490 649 q 521 626 542 593 q 563 560 575 519 l 466 479 q 459 500 447 520 q 435 539 417 553 q 399 568 376 576 q 353 585 322 585 q 278 585 246 568 q 214 551 194 520 q 173 489 163 445 q 153 401 153 347 q 153 293 163 249 q 173 204 194 171 q 215 139 247 121 q 279 103 323 103 z"},"q":{"x_min":0,"x_max":501,"ha":501,"o":"m 34 264 q 34 324 44 374 q 54 425 74 461 q 95 498 126 518 q 158 539 201 539 q 245 539 279 516 q 313 494 332 443 q 332 454 333 467 q 333 480 334 493 q 335 505 336 515 q 337 525 338 528 l 446 528 q 445 511 445 479 q 444 447 444 407 l 444 -208 l 332 -208 l 332 12 q 332 26 333 39 q 333 52 333 63 q 333 63 334 88 l 333 88 q 313 37 277 13 q 241 -10 192 -10 q 151 -10 121 11 q 91 31 72 68 q 52 104 43 155 q 34 205 34 264 z m 333 267 q 333 319 325 354 q 317 388 304 408 q 291 428 274 436 q 258 444 241 444 q 220 444 203 434 q 186 424 175 402 q 163 380 157 346 q 151 312 151 264 q 151 84 240 84 q 257 84 274 93 q 291 102 304 123 q 317 144 325 179 q 333 214 333 267 z"},"d":{"x_min":0,"x_max":501,"ha":501,"o":"m 338 0 q 337 4 336 14 q 335 24 334 37 q 333 49 333 62 q 332 76 332 86 l 331 86 q 311 35 276 12 q 241 -10 192 -10 q 151 -10 121 11 q 91 31 72 68 q 52 104 43 155 q 34 205 34 264 q 34 324 43 374 q 53 424 74 461 q 94 497 126 518 q 157 538 200 538 q 221 538 241 533 q 261 527 278 516 q 294 505 308 487 q 322 470 331 445 l 332 445 q 332 450 332 459 q 332 469 332 481 q 332 493 331 506 q 331 520 331 532 l 331 725 l 444 725 l 444 115 q 444 77 445 47 q 446 17 447 0 z m 333 267 q 333 319 325 354 q 317 388 304 408 q 291 429 274 437 q 257 445 240 445 q 219 445 202 435 q 186 424 174 402 q 163 380 157 346 q 151 312 151 264 q 151 84 239 84 q 256 84 273 93 q 290 102 303 123 q 316 144 325 179 q 333 214 333 267 z"},"1":{"x_min":0,"x_max":456,"ha":456,"o":"m 52 0 l 52 102 l 191 102 l 191 571 l 56 468 l 56 576 l 197 688 l 304 688 l 304 102 l 433 102 l 433 0 z"},"5":{"x_min":0,"x_max":456,"ha":456,"o":"m 433 229 q 433 177 420 134 q 406 90 380 58 q 354 26 314 8 q 275 -10 224 -10 q 177 -10 142 4 q 106 18 82 43 q 58 67 44 101 q 30 134 25 172 l 138 183 q 141 167 147 152 q 152 137 163 125 q 173 113 188 106 q 204 99 226 99 q 268 99 292 132 q 317 165 317 226 q 317 253 311 275 q 305 297 294 313 q 282 329 266 337 q 249 345 228 345 q 200 345 182 332 q 164 319 151 301 l 42 301 l 61 688 l 400 688 l 400 586 l 164 586 l 154 412 q 171 430 197 443 q 222 456 256 456 q 298 456 331 439 q 364 423 386 393 q 409 363 421 322 q 433 280 433 229 z"}}}
